{
	"asset":{
		"generator":"Khronos glTF Blender I/O v4.0.44",
		"version":"2.0"
	},
	"scene":0,
	"scenes":[
		{
			"name":"Scene",
			"nodes":[
				0,
				1,
				2,
				3,
				4,
				5,
				6,
				7,
				8
			]
		}
	],
	"nodes":[
		{
			"mesh":0,
			"name":"structure sign board"
		},
		{
			"mesh":1,
			"name":"signboard",
			"translation":[
				0,
				0.30000001192092896,
				0
			]
		},
		{
			"mesh":2,
			"name":"structure banner"
		},
		{
			"mesh":3,
			"name":"structure entrance L"
		},
		{
			"mesh":4,
			"name":"structure entrance R"
		},
		{
			"mesh":5,
			"name":"banner IMG_3237 \u7126\u7cd6",
			"scale":[
				3,
				3,
				3
			],
			"translation":[
				-12,
				1.5999999046325684,
				12
			]
		},
		{
			"mesh":6,
			"name":"main door",
			"translation":[
				-10,
				1.5,
				22
			]
		},
		{
			"mesh":7,
			"name":"square lamp banner",
			"rotation":[
				0.04361938685178757,
				0,
				0,
				0.9990482330322266
			],
			"translation":[
				-12,
				3.961975574493408,
				12.553540229797363
			]
		},
		{
			"mesh":8,
			"name":"square lamp signboard",
			"rotation":[
				0,
				-0.9990482330322266,
				0.04361938685178757,
				1.6276563030714897e-07
			],
			"translation":[
				-16,
				3.961975574493408,
				15.553540229797363
			]
		}
	],
	"materials":[
		{
			"doubleSided":true,
			"emissiveFactor":[
				1,
				1,
				1
			],
			"emissiveTexture":{
				"index":0
			},
			"name":"wall signboard",
			"pbrMetallicRoughness":{
				"baseColorFactor":[
					0,
					0,
					0,
					1
				]
			}
		},
		{
			"doubleSided":true,
			"emissiveFactor":[
				1,
				1,
				1
			],
			"emissiveTexture":{
				"index":1
			},
			"name":"sign board",
			"pbrMetallicRoughness":{
				"baseColorFactor":[
					0,
					0,
					0,
					1
				]
			}
		},
		{
			"doubleSided":true,
			"emissiveFactor":[
				1,
				1,
				1
			],
			"emissiveTexture":{
				"index":2
			},
			"name":"wall signboard.001",
			"pbrMetallicRoughness":{
				"baseColorFactor":[
					0,
					0,
					0,
					1
				]
			}
		},
		{
			"doubleSided":true,
			"emissiveFactor":[
				1,
				1,
				1
			],
			"emissiveTexture":{
				"index":3
			},
			"name":"wall entrance L",
			"pbrMetallicRoughness":{
				"baseColorFactor":[
					0,
					0,
					0,
					1
				]
			}
		},
		{
			"doubleSided":true,
			"emissiveFactor":[
				1,
				1,
				1
			],
			"emissiveTexture":{
				"index":4
			},
			"name":"wall entrance R",
			"pbrMetallicRoughness":{
				"baseColorFactor":[
					0,
					0,
					0,
					1
				]
			}
		},
		{
			"alphaMode":"BLEND",
			"doubleSided":true,
			"emissiveFactor":[
				1,
				1,
				1
			],
			"emissiveTexture":{
				"index":5
			},
			"name":"IMG_3237 \u7126\u7cd6",
			"pbrMetallicRoughness":{
				"baseColorFactor":[
					0,
					0,
					0,
					1
				]
			}
		},
		{
			"doubleSided":true,
			"emissiveFactor":[
				1,
				1,
				1
			],
			"emissiveTexture":{
				"index":6
			},
			"name":"door light",
			"pbrMetallicRoughness":{
				"baseColorFactor":[
					0,
					0,
					0,
					1
				]
			}
		},
		{
			"doubleSided":true,
			"emissiveFactor":[
				1,
				1,
				1
			],
			"emissiveTexture":{
				"index":7
			},
			"name":"door matte",
			"pbrMetallicRoughness":{
				"baseColorFactor":[
					0,
					0,
					0,
					1
				]
			}
		},
		{
			"doubleSided":true,
			"emissiveFactor":[
				1,
				1,
				1
			],
			"emissiveTexture":{
				"index":8
			},
			"name":"square lamp structure",
			"pbrMetallicRoughness":{
				"baseColorFactor":[
					0,
					0,
					0,
					1
				]
			}
		},
		{
			"doubleSided":true,
			"emissiveFactor":[
				1,
				1,
				1
			],
			"emissiveTexture":{
				"index":9
			},
			"name":"square lamp",
			"pbrMetallicRoughness":{
				"baseColorFactor":[
					0,
					0,
					0,
					1
				]
			}
		}
	],
	"meshes":[
		{
			"name":"Circle.016",
			"primitives":[
				{
					"attributes":{
						"POSITION":0,
						"NORMAL":1,
						"TEXCOORD_0":2
					},
					"indices":3,
					"material":0
				}
			]
		},
		{
			"name":"Circle.017",
			"primitives":[
				{
					"attributes":{
						"POSITION":4,
						"NORMAL":5,
						"TEXCOORD_0":6
					},
					"indices":7,
					"material":1
				}
			]
		},
		{
			"name":"Circle.018",
			"primitives":[
				{
					"attributes":{
						"POSITION":8,
						"NORMAL":9,
						"TEXCOORD_0":10
					},
					"indices":11,
					"material":2
				}
			]
		},
		{
			"name":"Circle.023",
			"primitives":[
				{
					"attributes":{
						"POSITION":12,
						"NORMAL":13,
						"TEXCOORD_0":14
					},
					"indices":7,
					"material":3
				}
			]
		},
		{
			"name":"Circle.035",
			"primitives":[
				{
					"attributes":{
						"POSITION":15,
						"NORMAL":16,
						"TEXCOORD_0":17
					},
					"indices":18,
					"material":4
				}
			]
		},
		{
			"name":"IMG_3237 \u7126\u7cd6",
			"primitives":[
				{
					"attributes":{
						"POSITION":19,
						"NORMAL":20,
						"TEXCOORD_0":21
					},
					"indices":22,
					"material":5
				}
			]
		},
		{
			"name":"Circle.014",
			"primitives":[
				{
					"attributes":{
						"POSITION":23,
						"NORMAL":24,
						"TEXCOORD_0":25
					},
					"indices":26,
					"material":6
				},
				{
					"attributes":{
						"POSITION":27,
						"NORMAL":28,
						"TEXCOORD_0":29
					},
					"indices":30,
					"material":7
				}
			]
		},
		{
			"name":"Plane.002",
			"primitives":[
				{
					"attributes":{
						"POSITION":31,
						"NORMAL":32,
						"TEXCOORD_0":33
					},
					"indices":34,
					"material":8
				},
				{
					"attributes":{
						"POSITION":35,
						"NORMAL":36,
						"TEXCOORD_0":37
					},
					"indices":18,
					"material":9
				}
			]
		},
		{
			"name":"Plane.003",
			"primitives":[
				{
					"attributes":{
						"POSITION":38,
						"NORMAL":39,
						"TEXCOORD_0":40
					},
					"indices":34,
					"material":8
				},
				{
					"attributes":{
						"POSITION":41,
						"NORMAL":42,
						"TEXCOORD_0":43
					},
					"indices":18,
					"material":9
				}
			]
		}
	],
	"textures":[
		{
			"sampler":0,
			"source":0
		},
		{
			"sampler":1,
			"source":1
		},
		{
			"sampler":0,
			"source":2
		},
		{
			"sampler":0,
			"source":3
		},
		{
			"sampler":0,
			"source":4
		},
		{
			"sampler":1,
			"source":5
		},
		{
			"sampler":0,
			"source":6
		},
		{
			"sampler":0,
			"source":6
		},
		{
			"sampler":0,
			"source":7
		},
		{
			"sampler":0,
			"source":7
		}
	],
	"images":[
		{
			"mimeType":"image/png",
			"name":"wall signboard",
			"uri":"wall%20signboard.png"
		},
		{
			"mimeType":"image/png",
			"name":"signboard final",
			"uri":"signboard%20final.png"
		},
		{
			"mimeType":"image/png",
			"name":"wall banner",
			"uri":"wall%20banner.png"
		},
		{
			"mimeType":"image/png",
			"name":"wall entrance L",
			"uri":"wall%20entrance%20L.png"
		},
		{
			"mimeType":"image/png",
			"name":"wall entrance R",
			"uri":"wall%20entrance%20R.png"
		},
		{
			"mimeType":"image/png",
			"name":"banner final",
			"uri":"banner%20final.png"
		},
		{
			"mimeType":"image/png",
			"name":"main door",
			"uri":"main%20door.png"
		},
		{
			"mimeType":"image/png",
			"name":"square lamp",
			"uri":"square%20lamp.png"
		}
	],
	"accessors":[
		{
			"bufferView":0,
			"componentType":5126,
			"count":16,
			"max":[
				-12,
				4,
				16
			],
			"min":[
				-20,
				0,
				16
			],
			"type":"VEC3"
		},
		{
			"bufferView":1,
			"componentType":5126,
			"count":16,
			"type":"VEC3"
		},
		{
			"bufferView":2,
			"componentType":5126,
			"count":16,
			"type":"VEC2"
		},
		{
			"bufferView":3,
			"componentType":5123,
			"count":48,
			"type":"SCALAR"
		},
		{
			"bufferView":4,
			"componentType":5126,
			"count":4,
			"max":[
				-13.399999618530273,
				2.799999952316284,
				16
			],
			"min":[
				-18.600000381469727,
				0.20000004768371582,
				16
			],
			"type":"VEC3"
		},
		{
			"bufferView":5,
			"componentType":5126,
			"count":4,
			"type":"VEC3"
		},
		{
			"bufferView":6,
			"componentType":5126,
			"count":4,
			"type":"VEC2"
		},
		{
			"bufferView":7,
			"componentType":5123,
			"count":6,
			"type":"SCALAR"
		},
		{
			"bufferView":8,
			"componentType":5126,
			"count":16,
			"max":[
				-8,
				4,
				12
			],
			"min":[
				-16,
				0,
				12
			],
			"type":"VEC3"
		},
		{
			"bufferView":9,
			"componentType":5126,
			"count":16,
			"type":"VEC3"
		},
		{
			"bufferView":10,
			"componentType":5126,
			"count":16,
			"type":"VEC2"
		},
		{
			"bufferView":11,
			"componentType":5123,
			"count":48,
			"type":"SCALAR"
		},
		{
			"bufferView":12,
			"componentType":5126,
			"count":4,
			"max":[
				-12,
				4,
				22
			],
			"min":[
				-12,
				0,
				16
			],
			"type":"VEC3"
		},
		{
			"bufferView":13,
			"componentType":5126,
			"count":4,
			"type":"VEC3"
		},
		{
			"bufferView":14,
			"componentType":5126,
			"count":4,
			"type":"VEC2"
		},
		{
			"bufferView":15,
			"componentType":5126,
			"count":4,
			"max":[
				-8,
				4,
				22
			],
			"min":[
				-8,
				0,
				16
			],
			"type":"VEC3"
		},
		{
			"bufferView":16,
			"componentType":5126,
			"count":4,
			"type":"VEC3"
		},
		{
			"bufferView":17,
			"componentType":5126,
			"count":4,
			"type":"VEC2"
		},
		{
			"bufferView":18,
			"componentType":5123,
			"count":6,
			"type":"SCALAR"
		},
		{
			"bufferView":19,
			"componentType":5126,
			"count":4,
			"max":[
				0.8888888955116272,
				0.5,
				1.77273975054959e-07
			],
			"min":[
				-0.8888888955116272,
				-0.5,
				-1.77273975054959e-07
			],
			"type":"VEC3"
		},
		{
			"bufferView":20,
			"componentType":5126,
			"count":4,
			"type":"VEC3"
		},
		{
			"bufferView":21,
			"componentType":5126,
			"count":4,
			"type":"VEC2"
		},
		{
			"bufferView":22,
			"componentType":5123,
			"count":6,
			"type":"SCALAR"
		},
		{
			"bufferView":23,
			"componentType":5126,
			"count":16,
			"max":[
				1.1999998092651367,
				1.0999999046325684,
				0.05000000074505806
			],
			"min":[
				-1.1999998092651367,
				-1.399999976158142,
				0.05000000074505806
			],
			"type":"VEC3"
		},
		{
			"bufferView":24,
			"componentType":5126,
			"count":16,
			"type":"VEC3"
		},
		{
			"bufferView":25,
			"componentType":5126,
			"count":16,
			"type":"VEC2"
		},
		{
			"bufferView":26,
			"componentType":5123,
			"count":24,
			"type":"SCALAR"
		},
		{
			"bufferView":27,
			"componentType":5126,
			"count":328,
			"max":[
				2,
				2.5,
				0.05000000074505806
			],
			"min":[
				-2,
				-1.5,
				-0.12000000476837158
			],
			"type":"VEC3"
		},
		{
			"bufferView":28,
			"componentType":5126,
			"count":328,
			"type":"VEC3"
		},
		{
			"bufferView":29,
			"componentType":5126,
			"count":328,
			"type":"VEC2"
		},
		{
			"bufferView":30,
			"componentType":5123,
			"count":504,
			"type":"SCALAR"
		},
		{
			"bufferView":31,
			"componentType":5126,
			"count":24,
			"max":[
				3.0999999046325684,
				0.07165148854255676,
				0.30000001192092896
			],
			"min":[
				-3.0999999046325684,
				0,
				-0.3017110526561737
			],
			"type":"VEC3"
		},
		{
			"bufferView":32,
			"componentType":5126,
			"count":24,
			"type":"VEC3"
		},
		{
			"bufferView":33,
			"componentType":5126,
			"count":24,
			"type":"VEC2"
		},
		{
			"bufferView":34,
			"componentType":5123,
			"count":48,
			"type":"SCALAR"
		},
		{
			"bufferView":35,
			"componentType":5126,
			"count":4,
			"max":[
				3,
				0,
				0.20000001788139343
			],
			"min":[
				-3,
				0,
				-0.20000001788139343
			],
			"type":"VEC3"
		},
		{
			"bufferView":36,
			"componentType":5126,
			"count":4,
			"type":"VEC3"
		},
		{
			"bufferView":37,
			"componentType":5126,
			"count":4,
			"type":"VEC2"
		},
		{
			"bufferView":38,
			"componentType":5126,
			"count":24,
			"max":[
				3.0999999046325684,
				0.07165148854255676,
				0.30000001192092896
			],
			"min":[
				-3.0999999046325684,
				0,
				-0.3017110526561737
			],
			"type":"VEC3"
		},
		{
			"bufferView":39,
			"componentType":5126,
			"count":24,
			"type":"VEC3"
		},
		{
			"bufferView":40,
			"componentType":5126,
			"count":24,
			"type":"VEC2"
		},
		{
			"bufferView":41,
			"componentType":5126,
			"count":4,
			"max":[
				3,
				0,
				0.20000001788139343
			],
			"min":[
				-3,
				0,
				-0.20000001788139343
			],
			"type":"VEC3"
		},
		{
			"bufferView":42,
			"componentType":5126,
			"count":4,
			"type":"VEC3"
		},
		{
			"bufferView":43,
			"componentType":5126,
			"count":4,
			"type":"VEC2"
		}
	],
	"bufferViews":[
		{
			"buffer":0,
			"byteLength":192,
			"byteOffset":0,
			"target":34962
		},
		{
			"buffer":0,
			"byteLength":192,
			"byteOffset":192,
			"target":34962
		},
		{
			"buffer":0,
			"byteLength":128,
			"byteOffset":384,
			"target":34962
		},
		{
			"buffer":0,
			"byteLength":96,
			"byteOffset":512,
			"target":34963
		},
		{
			"buffer":0,
			"byteLength":48,
			"byteOffset":608,
			"target":34962
		},
		{
			"buffer":0,
			"byteLength":48,
			"byteOffset":656,
			"target":34962
		},
		{
			"buffer":0,
			"byteLength":32,
			"byteOffset":704,
			"target":34962
		},
		{
			"buffer":0,
			"byteLength":12,
			"byteOffset":736,
			"target":34963
		},
		{
			"buffer":0,
			"byteLength":192,
			"byteOffset":748,
			"target":34962
		},
		{
			"buffer":0,
			"byteLength":192,
			"byteOffset":940,
			"target":34962
		},
		{
			"buffer":0,
			"byteLength":128,
			"byteOffset":1132,
			"target":34962
		},
		{
			"buffer":0,
			"byteLength":96,
			"byteOffset":1260,
			"target":34963
		},
		{
			"buffer":0,
			"byteLength":48,
			"byteOffset":1356,
			"target":34962
		},
		{
			"buffer":0,
			"byteLength":48,
			"byteOffset":1404,
			"target":34962
		},
		{
			"buffer":0,
			"byteLength":32,
			"byteOffset":1452,
			"target":34962
		},
		{
			"buffer":0,
			"byteLength":48,
			"byteOffset":1484,
			"target":34962
		},
		{
			"buffer":0,
			"byteLength":48,
			"byteOffset":1532,
			"target":34962
		},
		{
			"buffer":0,
			"byteLength":32,
			"byteOffset":1580,
			"target":34962
		},
		{
			"buffer":0,
			"byteLength":12,
			"byteOffset":1612,
			"target":34963
		},
		{
			"buffer":0,
			"byteLength":48,
			"byteOffset":1624,
			"target":34962
		},
		{
			"buffer":0,
			"byteLength":48,
			"byteOffset":1672,
			"target":34962
		},
		{
			"buffer":0,
			"byteLength":32,
			"byteOffset":1720,
			"target":34962
		},
		{
			"buffer":0,
			"byteLength":12,
			"byteOffset":1752,
			"target":34963
		},
		{
			"buffer":0,
			"byteLength":192,
			"byteOffset":1764,
			"target":34962
		},
		{
			"buffer":0,
			"byteLength":192,
			"byteOffset":1956,
			"target":34962
		},
		{
			"buffer":0,
			"byteLength":128,
			"byteOffset":2148,
			"target":34962
		},
		{
			"buffer":0,
			"byteLength":48,
			"byteOffset":2276,
			"target":34963
		},
		{
			"buffer":0,
			"byteLength":3936,
			"byteOffset":2324,
			"target":34962
		},
		{
			"buffer":0,
			"byteLength":3936,
			"byteOffset":6260,
			"target":34962
		},
		{
			"buffer":0,
			"byteLength":2624,
			"byteOffset":10196,
			"target":34962
		},
		{
			"buffer":0,
			"byteLength":1008,
			"byteOffset":12820,
			"target":34963
		},
		{
			"buffer":0,
			"byteLength":288,
			"byteOffset":13828,
			"target":34962
		},
		{
			"buffer":0,
			"byteLength":288,
			"byteOffset":14116,
			"target":34962
		},
		{
			"buffer":0,
			"byteLength":192,
			"byteOffset":14404,
			"target":34962
		},
		{
			"buffer":0,
			"byteLength":96,
			"byteOffset":14596,
			"target":34963
		},
		{
			"buffer":0,
			"byteLength":48,
			"byteOffset":14692,
			"target":34962
		},
		{
			"buffer":0,
			"byteLength":48,
			"byteOffset":14740,
			"target":34962
		},
		{
			"buffer":0,
			"byteLength":32,
			"byteOffset":14788,
			"target":34962
		},
		{
			"buffer":0,
			"byteLength":288,
			"byteOffset":14820,
			"target":34962
		},
		{
			"buffer":0,
			"byteLength":288,
			"byteOffset":15108,
			"target":34962
		},
		{
			"buffer":0,
			"byteLength":192,
			"byteOffset":15396,
			"target":34962
		},
		{
			"buffer":0,
			"byteLength":48,
			"byteOffset":15588,
			"target":34962
		},
		{
			"buffer":0,
			"byteLength":48,
			"byteOffset":15636,
			"target":34962
		},
		{
			"buffer":0,
			"byteLength":32,
			"byteOffset":15684,
			"target":34962
		}
	],
	"samplers":[
		{
			"magFilter":9729,
			"minFilter":9987
		},
		{
			"magFilter":9729,
			"minFilter":9987,
			"wrapS":33071,
			"wrapT":33071
		}
	],
	"buffers":[
		{
			"byteLength":15716,
			"uri":"entrance.bin"
		}
	]
}
