{
	"asset":{
		"generator":"Khronos glTF Blender I/O v4.0.44",
		"version":"2.0"
	},
	"scene":0,
	"scenes":[
		{
			"name":"Scene",
			"nodes":[
				0,
				1,
				2,
				3
			]
		}
	],
	"nodes":[
		{
			"mesh":0,
			"name":"ceiling ver3",
			"translation":[
				0,
				12,
				0
			]
		},
		{
			"mesh":1,
			"name":"floor",
			"scale":[
				0.800000011920929,
				0.800000011920929,
				0.800000011920929
			],
			"translation":[
				-6,
				0,
				6
			]
		},
		{
			"mesh":2,
			"name":"flat light",
			"translation":[
				-10,
				3.990000009536743,
				20
			]
		},
		{
			"mesh":3,
			"name":"sky cube",
			"scale":[
				100,
				100,
				100
			]
		}
	],
	"materials":[
		{
			"doubleSided":true,
			"emissiveFactor":[
				1,
				1,
				1
			],
			"emissiveTexture":{
				"index":0
			},
			"name":"walkway ceiling",
			"pbrMetallicRoughness":{
				"baseColorFactor":[
					0,
					0,
					0,
					1
				]
			}
		},
		{
			"doubleSided":true,
			"emissiveFactor":[
				1,
				1,
				1
			],
			"emissiveTexture":{
				"index":1
			},
			"name":"floor wooden",
			"pbrMetallicRoughness":{
				"baseColorFactor":[
					0,
					0,
					0,
					1
				]
			}
		},
		{
			"doubleSided":true,
			"emissiveFactor":[
				1,
				1,
				1
			],
			"emissiveTexture":{
				"index":2
			},
			"name":"Material.003",
			"pbrMetallicRoughness":{
				"baseColorFactor":[
					0,
					0,
					0,
					1
				]
			}
		},
		{
			"doubleSided":true,
			"emissiveFactor":[
				1,
				1,
				1
			],
			"emissiveTexture":{
				"index":3
			},
			"name":"sky sphere",
			"pbrMetallicRoughness":{
				"baseColorFactor":[
					0,
					0,
					0,
					1
				]
			}
		}
	],
	"meshes":[
		{
			"name":"Circle.010",
			"primitives":[
				{
					"attributes":{
						"POSITION":0,
						"NORMAL":1,
						"TEXCOORD_0":2
					},
					"indices":3,
					"material":0
				}
			]
		},
		{
			"name":"Circle.003",
			"primitives":[
				{
					"attributes":{
						"POSITION":4,
						"NORMAL":5,
						"TEXCOORD_0":6
					},
					"indices":7,
					"material":1
				}
			]
		},
		{
			"name":"Circle",
			"primitives":[
				{
					"attributes":{
						"POSITION":8,
						"NORMAL":9,
						"TEXCOORD_0":10
					},
					"indices":11,
					"material":2
				}
			]
		},
		{
			"name":"Cube.040",
			"primitives":[
				{
					"attributes":{
						"POSITION":12,
						"NORMAL":13,
						"TEXCOORD_0":14
					},
					"indices":15,
					"material":3
				}
			]
		}
	],
	"textures":[
		{
			"sampler":0,
			"source":0
		},
		{
			"sampler":0,
			"source":1
		},
		{
			"sampler":0,
			"source":2
		},
		{
			"sampler":0,
			"source":3
		}
	],
	"images":[
		{
			"mimeType":"image/png",
			"name":"ceiling",
			"uri":"ceiling.png"
		},
		{
			"mimeType":"image/png",
			"name":"floor-baked2",
			"uri":"floor-baked2.png"
		},
		{
			"mimeType":"image/png",
			"name":"flat light",
			"uri":"flat%20light.png"
		},
		{
			"mimeType":"image/png",
			"name":"sky",
			"uri":"sky.png"
		}
	],
	"accessors":[
		{
			"bufferView":0,
			"componentType":5126,
			"count":28,
			"max":[
				3,
				-8,
				23
			],
			"min":[
				-21,
				-8,
				-3
			],
			"type":"VEC3"
		},
		{
			"bufferView":1,
			"componentType":5126,
			"count":28,
			"type":"VEC3"
		},
		{
			"bufferView":2,
			"componentType":5126,
			"count":28,
			"type":"VEC2"
		},
		{
			"bufferView":3,
			"componentType":5123,
			"count":78,
			"type":"SCALAR"
		},
		{
			"bufferView":4,
			"componentType":5126,
			"count":9,
			"max":[
				21.25,
				0,
				21.25
			],
			"min":[
				-20,
				0,
				-21.25
			],
			"type":"VEC3"
		},
		{
			"bufferView":5,
			"componentType":5126,
			"count":9,
			"type":"VEC3"
		},
		{
			"bufferView":6,
			"componentType":5126,
			"count":9,
			"type":"VEC2"
		},
		{
			"bufferView":7,
			"componentType":5123,
			"count":24,
			"type":"SCALAR"
		},
		{
			"bufferView":8,
			"componentType":5126,
			"count":1656,
			"max":[
				10.19999885559082,
				-2.28881845032447e-06,
				-1.7999985218048096
			],
			"min":[
				-8.20000171661377,
				-2.28881845032447e-06,
				-20.19999885559082
			],
			"type":"VEC3"
		},
		{
			"bufferView":9,
			"componentType":5126,
			"count":1656,
			"type":"VEC3"
		},
		{
			"bufferView":10,
			"componentType":5126,
			"count":1656,
			"type":"VEC2"
		},
		{
			"bufferView":11,
			"componentType":5123,
			"count":7314,
			"type":"SCALAR"
		},
		{
			"bufferView":12,
			"componentType":5126,
			"count":20,
			"max":[
				1,
				1,
				1
			],
			"min":[
				-1,
				0,
				-1
			],
			"type":"VEC3"
		},
		{
			"bufferView":13,
			"componentType":5126,
			"count":20,
			"type":"VEC3"
		},
		{
			"bufferView":14,
			"componentType":5126,
			"count":20,
			"type":"VEC2"
		},
		{
			"bufferView":15,
			"componentType":5123,
			"count":30,
			"type":"SCALAR"
		}
	],
	"bufferViews":[
		{
			"buffer":0,
			"byteLength":336,
			"byteOffset":0,
			"target":34962
		},
		{
			"buffer":0,
			"byteLength":336,
			"byteOffset":336,
			"target":34962
		},
		{
			"buffer":0,
			"byteLength":224,
			"byteOffset":672,
			"target":34962
		},
		{
			"buffer":0,
			"byteLength":156,
			"byteOffset":896,
			"target":34963
		},
		{
			"buffer":0,
			"byteLength":108,
			"byteOffset":1052,
			"target":34962
		},
		{
			"buffer":0,
			"byteLength":108,
			"byteOffset":1160,
			"target":34962
		},
		{
			"buffer":0,
			"byteLength":72,
			"byteOffset":1268,
			"target":34962
		},
		{
			"buffer":0,
			"byteLength":48,
			"byteOffset":1340,
			"target":34963
		},
		{
			"buffer":0,
			"byteLength":19872,
			"byteOffset":1388,
			"target":34962
		},
		{
			"buffer":0,
			"byteLength":19872,
			"byteOffset":21260,
			"target":34962
		},
		{
			"buffer":0,
			"byteLength":13248,
			"byteOffset":41132,
			"target":34962
		},
		{
			"buffer":0,
			"byteLength":14628,
			"byteOffset":54380,
			"target":34963
		},
		{
			"buffer":0,
			"byteLength":240,
			"byteOffset":69008,
			"target":34962
		},
		{
			"buffer":0,
			"byteLength":240,
			"byteOffset":69248,
			"target":34962
		},
		{
			"buffer":0,
			"byteLength":160,
			"byteOffset":69488,
			"target":34962
		},
		{
			"buffer":0,
			"byteLength":60,
			"byteOffset":69648,
			"target":34963
		}
	],
	"samplers":[
		{
			"magFilter":9729,
			"minFilter":9987
		}
	],
	"buffers":[
		{
			"byteLength":69708,
			"uri":"floor%20and%20ceiling.bin"
		}
	]
}
