{
	"asset":{
		"generator":"Khronos glTF Blender I/O v4.0.44",
		"version":"2.0"
	},
	"extensionsUsed":[
		"KHR_materials_specular",
		"KHR_materials_ior"
	],
	"scene":0,
	"scenes":[
		{
			"name":"Scene",
			"nodes":[
				0,
				1,
				2,
				3,
				4
			]
		}
	],
	"nodes":[
		{
			"mesh":0,
			"name":"ceiling ver3",
			"translation":[
				0,
				12,
				0
			]
		},
		{
			"mesh":1,
			"name":"floor",
			"scale":[
				0.800000011920929,
				0.800000011920929,
				0.800000011920929
			],
			"translation":[
				-6,
				0,
				6
			]
		},
		{
			"mesh":2,
			"name":"flat light",
			"translation":[
				-10,
				3.990000009536743,
				20
			]
		},
		{
			"mesh":3,
			"name":"brown_mud_leaves_01_diff_1k",
			"scale":[
				4,
				4,
				4
			],
			"translation":[
				0,
				-0.20000000298023224,
				0
			]
		},
		{
			"mesh":4,
			"name":"Sphere",
			"scale":[
				120.00000762939453,
				120.00000762939453,
				120.00000762939453
			]
		}
	],
	"materials":[
		{
			"doubleSided":true,
			"emissiveFactor":[
				1,
				1,
				1
			],
			"emissiveTexture":{
				"index":0
			},
			"name":"walkway ceiling",
			"pbrMetallicRoughness":{
				"baseColorFactor":[
					0,
					0,
					0,
					1
				]
			}
		},
		{
			"doubleSided":true,
			"emissiveFactor":[
				1,
				1,
				1
			],
			"emissiveTexture":{
				"index":1
			},
			"name":"floor wooden",
			"pbrMetallicRoughness":{
				"baseColorFactor":[
					0,
					0,
					0,
					1
				]
			}
		},
		{
			"doubleSided":true,
			"emissiveFactor":[
				1,
				1,
				1
			],
			"emissiveTexture":{
				"index":2
			},
			"name":"Material.003",
			"pbrMetallicRoughness":{
				"baseColorFactor":[
					0,
					0,
					0,
					1
				]
			}
		},
		{
			"alphaMode":"BLEND",
			"doubleSided":true,
			"extensions":{
				"KHR_materials_specular":{
					"specularFactor":0
				},
				"KHR_materials_ior":{
					"ior":1.4500000476837158
				}
			},
			"name":"brown_mud_leaves_01_diff_1k",
			"pbrMetallicRoughness":{
				"baseColorTexture":{
					"index":3
				},
				"metallicFactor":0,
				"roughnessFactor":0.5
			}
		},
		{
			"doubleSided":true,
			"emissiveFactor":[
				1,
				1,
				1
			],
			"emissiveTexture":{
				"index":4
			},
			"name":"sky sphere",
			"pbrMetallicRoughness":{
				"baseColorFactor":[
					0,
					0,
					0,
					1
				]
			}
		}
	],
	"meshes":[
		{
			"name":"Circle.010",
			"primitives":[
				{
					"attributes":{
						"POSITION":0,
						"NORMAL":1,
						"TEXCOORD_0":2
					},
					"indices":3,
					"material":0
				}
			]
		},
		{
			"name":"Circle.003",
			"primitives":[
				{
					"attributes":{
						"POSITION":4,
						"NORMAL":5,
						"TEXCOORD_0":6
					},
					"indices":7,
					"material":1
				}
			]
		},
		{
			"name":"Circle",
			"primitives":[
				{
					"attributes":{
						"POSITION":8,
						"NORMAL":9,
						"TEXCOORD_0":10
					},
					"indices":11,
					"material":2
				}
			]
		},
		{
			"name":"brown_mud_leaves_01_diff_1k",
			"primitives":[
				{
					"attributes":{
						"POSITION":12,
						"NORMAL":13,
						"TEXCOORD_0":14
					},
					"indices":15,
					"material":3
				}
			]
		},
		{
			"name":"Sphere.001",
			"primitives":[
				{
					"attributes":{
						"POSITION":16,
						"NORMAL":17,
						"TEXCOORD_0":18
					},
					"indices":19,
					"material":4
				}
			]
		}
	],
	"textures":[
		{
			"sampler":0,
			"source":0
		},
		{
			"sampler":0,
			"source":1
		},
		{
			"sampler":0,
			"source":2
		},
		{
			"sampler":1,
			"source":3
		},
		{
			"sampler":1,
			"source":4
		}
	],
	"images":[
		{
			"mimeType":"image/png",
			"name":"ceiling",
			"uri":"ceiling.png"
		},
		{
			"mimeType":"image/png",
			"name":"floor-baked2",
			"uri":"floor-baked2.png"
		},
		{
			"mimeType":"image/png",
			"name":"flat light",
			"uri":"flat%20light.png"
		},
		{
			"mimeType":"image/png",
			"name":"brown_mud_leaves_01_diff_1k",
			"uri":"brown_mud_leaves_01_diff_1k.png"
		},
		{
			"mimeType":"image/png",
			"name":"sky",
			"uri":"sky.png"
		}
	],
	"accessors":[
		{
			"bufferView":0,
			"componentType":5126,
			"count":28,
			"max":[
				3,
				-8,
				23
			],
			"min":[
				-21,
				-8,
				-3
			],
			"type":"VEC3"
		},
		{
			"bufferView":1,
			"componentType":5126,
			"count":28,
			"type":"VEC3"
		},
		{
			"bufferView":2,
			"componentType":5126,
			"count":28,
			"type":"VEC2"
		},
		{
			"bufferView":3,
			"componentType":5123,
			"count":78,
			"type":"SCALAR"
		},
		{
			"bufferView":4,
			"componentType":5126,
			"count":189,
			"max":[
				21.25,
				0,
				21.25
			],
			"min":[
				-20,
				-0.375,
				-21.25
			],
			"type":"VEC3"
		},
		{
			"bufferView":5,
			"componentType":5126,
			"count":189,
			"type":"VEC3"
		},
		{
			"bufferView":6,
			"componentType":5126,
			"count":189,
			"type":"VEC2"
		},
		{
			"bufferView":7,
			"componentType":5123,
			"count":354,
			"type":"SCALAR"
		},
		{
			"bufferView":8,
			"componentType":5126,
			"count":1692,
			"max":[
				10.19999885559082,
				-2.28881845032447e-06,
				-1.7999985218048096
			],
			"min":[
				-8.20000171661377,
				-2.28881845032447e-06,
				-20.19999885559082
			],
			"type":"VEC3"
		},
		{
			"bufferView":9,
			"componentType":5126,
			"count":1692,
			"type":"VEC3"
		},
		{
			"bufferView":10,
			"componentType":5126,
			"count":1692,
			"type":"VEC2"
		},
		{
			"bufferView":11,
			"componentType":5123,
			"count":7314,
			"type":"SCALAR"
		},
		{
			"bufferView":12,
			"componentType":5126,
			"count":4,
			"max":[
				0.5,
				0,
				0.5
			],
			"min":[
				-0.5,
				0,
				-0.5
			],
			"type":"VEC3"
		},
		{
			"bufferView":13,
			"componentType":5126,
			"count":4,
			"type":"VEC3"
		},
		{
			"bufferView":14,
			"componentType":5126,
			"count":4,
			"type":"VEC2"
		},
		{
			"bufferView":15,
			"componentType":5123,
			"count":6,
			"type":"SCALAR"
		},
		{
			"bufferView":16,
			"componentType":5126,
			"count":240,
			"max":[
				0.9925460815429688,
				1,
				0.992546021938324
			],
			"min":[
				-0.9925461411476135,
				0,
				-0.9925461411476135
			],
			"type":"VEC3"
		},
		{
			"bufferView":17,
			"componentType":5126,
			"count":240,
			"type":"VEC3"
		},
		{
			"bufferView":18,
			"componentType":5126,
			"count":240,
			"type":"VEC2"
		},
		{
			"bufferView":19,
			"componentType":5123,
			"count":336,
			"type":"SCALAR"
		}
	],
	"bufferViews":[
		{
			"buffer":0,
			"byteLength":336,
			"byteOffset":0,
			"target":34962
		},
		{
			"buffer":0,
			"byteLength":336,
			"byteOffset":336,
			"target":34962
		},
		{
			"buffer":0,
			"byteLength":224,
			"byteOffset":672,
			"target":34962
		},
		{
			"buffer":0,
			"byteLength":156,
			"byteOffset":896,
			"target":34963
		},
		{
			"buffer":0,
			"byteLength":2268,
			"byteOffset":1052,
			"target":34962
		},
		{
			"buffer":0,
			"byteLength":2268,
			"byteOffset":3320,
			"target":34962
		},
		{
			"buffer":0,
			"byteLength":1512,
			"byteOffset":5588,
			"target":34962
		},
		{
			"buffer":0,
			"byteLength":708,
			"byteOffset":7100,
			"target":34963
		},
		{
			"buffer":0,
			"byteLength":20304,
			"byteOffset":7808,
			"target":34962
		},
		{
			"buffer":0,
			"byteLength":20304,
			"byteOffset":28112,
			"target":34962
		},
		{
			"buffer":0,
			"byteLength":13536,
			"byteOffset":48416,
			"target":34962
		},
		{
			"buffer":0,
			"byteLength":14628,
			"byteOffset":61952,
			"target":34963
		},
		{
			"buffer":0,
			"byteLength":48,
			"byteOffset":76580,
			"target":34962
		},
		{
			"buffer":0,
			"byteLength":48,
			"byteOffset":76628,
			"target":34962
		},
		{
			"buffer":0,
			"byteLength":32,
			"byteOffset":76676,
			"target":34962
		},
		{
			"buffer":0,
			"byteLength":12,
			"byteOffset":76708,
			"target":34963
		},
		{
			"buffer":0,
			"byteLength":2880,
			"byteOffset":76720,
			"target":34962
		},
		{
			"buffer":0,
			"byteLength":2880,
			"byteOffset":79600,
			"target":34962
		},
		{
			"buffer":0,
			"byteLength":1920,
			"byteOffset":82480,
			"target":34962
		},
		{
			"buffer":0,
			"byteLength":672,
			"byteOffset":84400,
			"target":34963
		}
	],
	"samplers":[
		{
			"magFilter":9729,
			"minFilter":9987
		},
		{
			"magFilter":9729,
			"minFilter":9987,
			"wrapS":33071,
			"wrapT":33071
		}
	],
	"buffers":[
		{
			"byteLength":85072,
			"uri":"floor%20and%20ceiling.bin"
		}
	]
}
