{
	"asset":{
		"generator":"Khronos glTF Blender I/O v4.0.44",
		"version":"2.0"
	},
	"extensionsUsed":[
		"KHR_materials_emissive_strength",
		"KHR_materials_specular",
		"KHR_materials_ior"
	],
	"scene":0,
	"scenes":[
		{
			"name":"Scene",
			"nodes":[
				0,
				1,
				2
			]
		}
	],
	"nodes":[
		{
			"mesh":0,
			"name":"sakura blossom main",
			"scale":[
				3.014090061187744,
				3.014090061187744,
				3.014090061187744
			],
			"translation":[
				-0.22346541285514832,
				7.275538444519043,
				-0.05716067552566528
			]
		},
		{
			"mesh":1,
			"name":"sakura tree trunk",
			"translation":[
				-0.3330868184566498,
				0,
				0
			]
		},
		{
			"mesh":2,
			"name":"grass",
			"scale":[
				0.5,
				0.5,
				0.5
			]
		}
	],
	"materials":[
		{
			"alphaMode":"BLEND",
			"doubleSided":true,
			"emissiveFactor":[
				1,
				1,
				1
			],
			"emissiveTexture":{
				"index":0
			},
			"extensions":{
				"KHR_materials_emissive_strength":{
					"emissiveStrength":1.6
				}
			},
			"name":"sakura tree top",
			"pbrMetallicRoughness":{
				"baseColorFactor":[
					0,
					0,
					0,
					1
				],
				"baseColorTexture":{
					"index":1
				},
				"metallicFactor":0,
				"roughnessFactor":0.5
			}
		},
		{
			"alphaMode":"BLEND",
			"emissiveFactor":[
				1,
				1,
				1
			],
			"emissiveTexture":{
				"index":2
			},
			"name":"sakura tree trunk",
			"pbrMetallicRoughness":{
				"baseColorFactor":[
					0,
					0,
					0,
					1
				],
				"baseColorTexture":{
					"index":3
				},
				"metallicFactor":0,
				"roughnessFactor":0.5
			}
		},
		{
			"alphaMode":"BLEND",
			"doubleSided":true,
			"emissiveFactor":[
				1,
				1,
				1
			],
			"emissiveTexture":{
				"index":4
			},
			"extensions":{
				"KHR_materials_specular":{
					"specularFactor":0
				},
				"KHR_materials_ior":{
					"ior":1.4500000476837158
				}
			},
			"name":"grass",
			"pbrMetallicRoughness":{
				"baseColorFactor":[
					0,
					0,
					0,
					1
				],
				"baseColorTexture":{
					"index":5
				},
				"metallicFactor":0,
				"roughnessFactor":0.5
			}
		}
	],
	"meshes":[
		{
			"name":"Mesh.001",
			"primitives":[
				{
					"attributes":{
						"POSITION":0,
						"NORMAL":1,
						"TEXCOORD_0":2
					},
					"indices":3,
					"material":0
				}
			]
		},
		{
			"name":"NurbsPath",
			"primitives":[
				{
					"attributes":{
						"POSITION":4,
						"NORMAL":5,
						"TEXCOORD_0":6
					},
					"indices":7,
					"material":1
				}
			]
		},
		{
			"name":"Plane.002",
			"primitives":[
				{
					"attributes":{
						"POSITION":8,
						"NORMAL":9,
						"TEXCOORD_0":10
					},
					"indices":11,
					"material":2
				}
			]
		}
	],
	"textures":[
		{
			"sampler":0,
			"source":0
		},
		{
			"sampler":0,
			"source":0
		},
		{
			"sampler":0,
			"source":1
		},
		{
			"sampler":0,
			"source":1
		},
		{
			"sampler":0,
			"source":2
		},
		{
			"sampler":0,
			"source":2
		}
	],
	"images":[
		{
			"mimeType":"image/png",
			"name":"sakura tree top",
			"uri":"sakura%20tree%20top.png"
		},
		{
			"mimeType":"image/png",
			"name":"tree trunk bake",
			"uri":"tree%20trunk%20bake.png"
		},
		{
			"mimeType":"image/png",
			"name":"grass",
			"uri":"grass.png"
		}
	],
	"accessors":[
		{
			"bufferView":0,
			"componentType":5126,
			"count":6301,
			"max":[
				2.320190668106079,
				1.21067476272583,
				2.0315372943878174
			],
			"min":[
				-2.17354154586792,
				-1.2827434539794922,
				-1.8668171167373657
			],
			"type":"VEC3"
		},
		{
			"bufferView":1,
			"componentType":5126,
			"count":6301,
			"type":"VEC3"
		},
		{
			"bufferView":2,
			"componentType":5126,
			"count":6301,
			"type":"VEC2"
		},
		{
			"bufferView":3,
			"componentType":5123,
			"count":35712,
			"type":"SCALAR"
		},
		{
			"bufferView":4,
			"componentType":5126,
			"count":1668,
			"max":[
				2.911461353302002,
				8.543411254882812,
				2.498298168182373
			],
			"min":[
				-3.2568857669830322,
				-1.0957568883895874,
				-2.7204387187957764
			],
			"type":"VEC3"
		},
		{
			"bufferView":5,
			"componentType":5126,
			"count":1668,
			"type":"VEC3"
		},
		{
			"bufferView":6,
			"componentType":5126,
			"count":1668,
			"type":"VEC2"
		},
		{
			"bufferView":7,
			"componentType":5123,
			"count":1776,
			"type":"SCALAR"
		},
		{
			"bufferView":8,
			"componentType":5126,
			"count":9585,
			"max":[
				3.500000476837158,
				0.6000000238418579,
				3.500000476837158
			],
			"min":[
				-3.500000476837158,
				0,
				-3.500000476837158
			],
			"type":"VEC3"
		},
		{
			"bufferView":9,
			"componentType":5126,
			"count":9585,
			"type":"VEC3"
		},
		{
			"bufferView":10,
			"componentType":5126,
			"count":9585,
			"type":"VEC2"
		},
		{
			"bufferView":11,
			"componentType":5123,
			"count":14910,
			"type":"SCALAR"
		}
	],
	"bufferViews":[
		{
			"buffer":0,
			"byteLength":75612,
			"byteOffset":0,
			"target":34962
		},
		{
			"buffer":0,
			"byteLength":75612,
			"byteOffset":75612,
			"target":34962
		},
		{
			"buffer":0,
			"byteLength":50408,
			"byteOffset":151224,
			"target":34962
		},
		{
			"buffer":0,
			"byteLength":71424,
			"byteOffset":201632,
			"target":34963
		},
		{
			"buffer":0,
			"byteLength":20016,
			"byteOffset":273056,
			"target":34962
		},
		{
			"buffer":0,
			"byteLength":20016,
			"byteOffset":293072,
			"target":34962
		},
		{
			"buffer":0,
			"byteLength":13344,
			"byteOffset":313088,
			"target":34962
		},
		{
			"buffer":0,
			"byteLength":3552,
			"byteOffset":326432,
			"target":34963
		},
		{
			"buffer":0,
			"byteLength":115020,
			"byteOffset":329984,
			"target":34962
		},
		{
			"buffer":0,
			"byteLength":115020,
			"byteOffset":445004,
			"target":34962
		},
		{
			"buffer":0,
			"byteLength":76680,
			"byteOffset":560024,
			"target":34962
		},
		{
			"buffer":0,
			"byteLength":29820,
			"byteOffset":636704,
			"target":34963
		}
	],
	"samplers":[
		{
			"magFilter":9729,
			"minFilter":9987
		}
	],
	"buffers":[
		{
			"byteLength":666524,
			"uri":"sakura%20tree.bin"
		}
	]
}
